<?xml version="1.0" encoding="UTF-8"?>
<svg xmlns="http://www.w3.org/2000/svg" version="1.1" viewBox="0 0 588.8 139.6">
  <defs>
    <style>
      .cls-1 {
        fill: #fff;
      }
    </style>
  </defs>
  <!-- Generator: Adobe Illustrator 28.7.1, SVG Export Plug-In . SVG Version: 1.2.0 Build 142)  -->
  <g>
    <g id="Layer_1">
      <g>
        <path class="cls-1" d="M74.4,49.1c-1.2-11.9-7.2-16.8-20.4-16.8s-18.4,4.1-18.4,11,3.8,8.9,13.5,11c19.3,4.4,25.7,6.3,32.6,8.9,12.3,4.9,19.1,15.1,19.1,28.8,0,22.2-17.3,35.2-46.2,35.2S8.9,115.2,7.4,90.2l24.7-1.3c.7,12,8.7,18.3,23.9,18.3s19.8-4.9,19.8-12.8-3.5-9.4-11.7-11.5c-4.9-1.3-10.5-2.6-16.8-4.1-18.8-4-27.3-8.7-32.4-17.6-2.6-4.4-4-9.5-4-15,0-20.2,17-33.4,43.1-33.4s42.1,11,44.9,34.7l-24.5,1.6Z"/>
        <polygon class="cls-1" points="256.9 15 235.2 60.1 213.3 15 202.6 15 186 15 171.1 15 133.1 56.8 133.1 15 108.6 15 108.6 124.6 133.1 124.6 133.1 85.4 143 75.2 176.1 124.6 206.3 124.6 159.9 58.1 191.8 25.9 223 84.1 223 124.6 247.4 124.6 247.4 84.1 284.2 15 256.9 15"/>
        <path class="cls-1" d="M570,49.5c0,0-.1,0-.2,0,0,0,.1,0,.2,0"/>
        <path class="cls-1" d="M327.5,128.6c-33.8,0-59.3-25.2-59.3-58.5v-.3c0-15.8,5.9-30.5,16.7-41.4,11.1-11.2,26.3-17.4,42.9-17.4s41.9,11.2,52.1,29.9l.8,1.5h-26.8l-.3-.3c-6.8-7.1-16.1-11-26.1-11-20.9,0-36.7,16.5-36.7,38.5v.3c0,22,15.9,38.6,37,38.6s25.7-7.1,32-19.1l.3-.5h24l-.5,1.3c-8.4,23.4-30.4,38.5-56.1,38.5ZM327.8,13c-32.9,0-57.6,24.4-57.6,56.8v.3c0,32.2,24.6,56.5,57.3,56.5s45.3-14,53.7-35.8h-19.9c-6.8,12.3-19.2,19.6-33.5,19.6-22.2,0-39-17.5-39-40.6v-.3c0-23.1,16.6-40.5,38.7-40.5s20.1,4,27.3,11.3h22.5c-10.1-17.1-28.4-27.3-49.5-27.3Z"/>
        <path class="cls-1" d="M540.8,15v53.5l.2,5.8.2,6.4c.2,3.1.3,4.9,1,9.5-2.6-6.9-6.9-15.8-10.5-21.7l-31.3-53.5h-24.4v89.5h-64.4v-27.2h51.3v-19.6h-51.5v-23h56.1V15h-80.5v43.6h15.5c5.2,0,9.1,4.1,9.1,9.3s-4,9.1-9.1,9.1h-15.5v47.6h113.3v-47.1c0-8.9-.7-19.3-1.6-28.3,3,7.7,8.2,18.4,13.3,26.7l29.5,48.7h23.9V15h-24.5Z"/>
        <path class="cls-1" d="M402.6,78h-77.6c-5.8,0-10.3-4.4-10.3-10.1s4.5-10.3,10.3-10.3h77.6c5.7,0,10.1,4.5,10.1,10.3s-4.5,10.1-10.1,10.1ZM324.9,59.5c-4.6,0-8.3,3.6-8.3,8.3s3.6,8.1,8.3,8.1h77.6c4.6,0,8.1-3.6,8.1-8.1s-3.6-8.3-8.1-8.3h-77.6Z"/>
        <path class="cls-1" d="M580.5,114.6c-.5-1-1.3-1.7-2.3-2.3-1-.5-2.1-.8-3.5-.8s-2.5.3-3.5.8c-1,.5-1.8,1.3-2.3,2.3-.5,1-.8,2.1-.8,3.4s.3,2.5.8,3.4c.5,1,1.3,1.8,2.3,2.3,1,.5,2.2.8,3.5.8s2.5-.3,3.5-.8c1-.5,1.8-1.3,2.3-2.3.5-1,.8-2.1.8-3.4s-.3-2.5-.8-3.4M579.3,120.8c-.4.8-1,1.4-1.8,1.8-.8.4-1.7.7-2.8.7s-2-.2-2.8-.7c-.8-.4-1.4-1.1-1.8-1.8-.4-.8-.6-1.7-.6-2.8s.2-2,.6-2.8c.4-.8,1-1.4,1.8-1.8.8-.4,1.7-.7,2.8-.7s2,.2,2.8.7c.8.4,1.4,1.1,1.8,1.8.4.8.6,1.7.6,2.8s-.2,2-.6,2.8"/>
        <path class="cls-1" d="M577.4,118.2c.3-.4.5-.8.5-1.4s-.2-1.2-.7-1.7c-.5-.4-1.1-.6-1.9-.6h-2.9v7.1h1.3v-2.6h1.3l1.7,2.6h1.5l-1.9-2.7c.5-.1,1-.4,1.3-.8M573.6,118.1v-2.6h1.6c1,0,1.4.4,1.4,1.3s-.5,1.3-1.4,1.3h-1.6Z"/>
      </g>
    </g>
  </g>
</svg>